<?xml version="1.0" encoding="UTF-8"?>
<svg width="385px" height="441px" viewBox="0 0 385 441" version="1.1" xmlns="http://www.w3.org/2000/svg" xmlns:xlink="http://www.w3.org/1999/xlink">
    <!-- Generator: Sketch 39.1 (31720) - http://www.bohemiancoding.com/sketch -->
    <title>love hack logo</title>
    <desc>Created with Sketch.</desc>
    <defs></defs>
    <g id="Page-1" stroke="none" stroke-width="1" fill="none" fill-rule="evenodd">
        <g id="love-hack-logo" transform="translate(8.000000, 8.000000)">
            <g id="Border_hexagon" stroke-width="14" stroke="#FFFFFF">
                <polygon id="Shape" points="2.1 104.7 186.6 0.5 369 108.3 366.9 320.3 182.4 424.5 0 316.7"></polygon>
            </g>
            <g id="Heart" transform="translate(99.000000, 140.000000)" fill="#FFFFFF">
                <g id="Shape_1">
                    <path d="M85.7,35.7 C64.4,-20.6 -4,-7.9 0.9,57 C3.4,89.9 84.3,153.5 84.3,153.5 C171.1,97.8 170.1,58.3 170.1,58.3 C172.4,-6.9 107.1,-17.9 85.7,35.7 L85.7,35.7 Z" id="Shape"></path>
                </g>
            </g>
            <g id="Lines" transform="translate(5.000000, 6.000000)" stroke="#FFFFFF" stroke-width="5">
                <path d="M204.5,11.3 L204.3,107.7" id="Shape"></path>
                <path d="M155.5,9.3 L155.3,105.7" id="Shape"></path>
                <path d="M132.5,18.3 L132.6,87" id="Shape"></path>
                <path d="M226.5,18.3 L226.6,87" id="Shape"></path>
                <polyline id="Shape" points="297 347.5 205.5 347.5 205.5 313"></polyline>
                <polyline id="Shape" points="114 380.5 178.5 380.5 178.5 333"></polyline>
                <path d="M361,195.5 L309,195.5" id="Shape"></path>
                <path d="M357,221.5 L298,221.5" id="Shape"></path>
                <polyline id="Shape" points="338 325.5 234.5 325.5 234.5 293"></polyline>
                <polyline id="Shape" points="285.5 57 285.5 121.5 267 121.5"></polyline>
                <path d="M360,246.5 L282,246.5" id="Shape"></path>
                <polyline id="Shape" points="20.5 326 20.5 164.5 67 164.5"></polyline>
                <polyline id="Shape" points="36.5 335 36.5 195.5 54 195.5"></polyline>
                <polyline id="Shape" points="18 87.5 94.5 87.5 94.5 108"></polyline>
                <polyline id="Shape" points="81.5 359 81.5 307.5 113 307.5 112.7 287.1"></polyline>
                <polyline id="Shape" points="100.5 370 100.5 326.5 138.5 326.5 138.5 306"></polyline>
                <polyline id="Shape" points="363 128.5 318.5 128.5 318.5 164 301 164.1"></polyline>
                <path d="M0,134.5 L60,134.5" id="Shape"></path>
                <polyline id="Shape" points="56.5 347 56.5 246.5 73 246.5"></polyline>
                <polyline id="Shape" points="361 306.5 296.5 306.5 296.5 276.5 269 276.5"></polyline>
                <g id="up" transform="translate(179.000000, 0.000000)">
                    <path d="M0.5,0.3 L0,126.1" id="Shape"></path>
                </g>
            </g>
            <g id="Circles" transform="translate(54.000000, 87.000000)" stroke="#FFFFFF" stroke-width="5.00009565">
                <circle id="Oval" transform="translate(129.991790, 53.115150) rotate(-59.303510) translate(-129.991790, -53.115150) " cx="129.991637" cy="53.114997" r="8"></circle>
                <circle id="Oval" transform="translate(154.990190, 32.114750) rotate(-59.303510) translate(-154.990190, -32.114750) " cx="154.990037" cy="32.114597" r="8"></circle>
                <circle id="Oval" transform="translate(105.991690, 32.116750) rotate(-59.303510) translate(-105.991690, -32.116750) " cx="105.991537" cy="32.116597" r="8"></circle>
                <circle id="Oval" transform="translate(83.991490, 11.118250) rotate(-59.303510) translate(-83.991490, -11.118250) " cx="83.991337" cy="11.118097" r="8"></circle>
                <circle id="Oval" transform="translate(177.988690, 11.114450) rotate(-59.303510) translate(-177.988690, -11.114450) " cx="177.988537" cy="11.114297" r="8"></circle>
                <circle id="Oval" transform="translate(157.006990, 226.128350) rotate(-59.303510) translate(-157.006990, -226.128350) " cx="157.006837" cy="226.128197" r="8"></circle>
                <circle id="Oval" transform="translate(130.007590, 244.128950) rotate(-59.303510) translate(-130.007590, -244.128950) " cx="130.007437" cy="244.128797" r="8"></circle>
                <circle id="Oval" transform="translate(253.003390, 114.126550) rotate(-59.303510) translate(-253.003390, -114.126550) " cx="253.003237" cy="114.126397" r="8"></circle>
                <circle id="Oval" transform="translate(241.004090, 140.126750) rotate(-59.303510) translate(-241.004090, -140.126750) " cx="241.003937" cy="140.126597" r="8"></circle>
                <circle id="Oval" transform="translate(185.006290, 206.127750) rotate(-59.303510) translate(-185.006290, -206.127750) " cx="185.006137" cy="206.127597" r="8"></circle>
                <circle id="Oval" transform="translate(211.988890, 40.112250) rotate(-59.303510) translate(-211.988890, -40.112250) " cx="211.988737" cy="40.112097" r="8"></circle>
                <circle id="Oval" transform="translate(226.004890, 165.126950) rotate(-59.303510) translate(-226.004890, -165.126950) " cx="226.004737" cy="165.126797" r="8"></circle>
                <circle id="Oval" transform="translate(23.996190, 83.118450) rotate(-59.303510) translate(-23.996190, -83.118450) " cx="23.996037" cy="83.118297" r="8"></circle>
                <circle id="Oval" transform="translate(10.997790, 114.118050) rotate(-59.303510) translate(-10.997790, -114.118050) " cx="10.997637" cy="114.117897" r="8"></circle>
                <circle id="Oval" transform="translate(44.993490, 32.119150) rotate(-59.303510) translate(-44.993490, -32.119150) " cx="44.993337" cy="32.118997" r="8"></circle>
                <circle id="Oval" transform="translate(64.006890, 198.130950) rotate(-59.303510) translate(-64.006890, -198.130950) " cx="64.006737" cy="198.130797" r="8"></circle>
                <circle id="Oval" transform="translate(90.007190, 217.130150) rotate(-59.303510) translate(-90.007190, -217.130150) " cx="90.007037" cy="217.129997" r="8"></circle>
                <circle id="Oval" transform="translate(244.002590, 83.127050) rotate(-59.303510) translate(-244.002590, -83.127050) " cx="244.002437" cy="83.126897" r="8"></circle>
                <circle id="Oval" transform="translate(18.995090, 53.119550) rotate(-59.303510) translate(-18.995090, -53.119550) " cx="18.994937" cy="53.119397" r="8"></circle>
                <circle id="Oval" transform="translate(32.006090, 165.132050) rotate(-59.303510) translate(-32.006090, -165.132050) " cx="32.005937" cy="165.131897" r="8"></circle>
                <circle id="Oval" transform="translate(212.005790, 195.127150) rotate(-59.303510) translate(-212.005790, -195.127150) " cx="212.005637" cy="195.126997" r="8"></circle>
            </g>
        </g>
    </g>
</svg>